<svg width="24" height="24" viewBox="0 0 24 24" fill="none" xmlns="http://www.w3.org/2000/svg">
<path d="M20.4375 2.8125H16.2188V2.10938C16.2188 0.946266 15.2725 0 14.1094 0H9.89062C8.72752 0 7.78125 0.946266 7.78125 2.10938V2.8125H3.5625C2.39939 2.8125 1.45312 3.75877 1.45312 4.92188V6.32812C1.45312 6.71644 1.76794 7.03125 2.15625 7.03125H2.91483L4.15172 22.0755C4.15186 22.0776 4.15205 22.0796 4.15223 22.0816C4.2517 23.1753 5.15484 24 6.25294 24H17.747C18.8452 24 19.7482 23.1753 19.8477 22.0816C19.8479 22.0796 19.8481 22.0776 19.8482 22.0755L21.0852 7.03125H21.8438C22.2321 7.03125 22.5469 6.71644 22.5469 6.32812V4.92188C22.5469 3.75877 21.6006 2.8125 20.4375 2.8125ZM9.1875 2.10938C9.1875 1.72167 9.50292 1.40625 9.89062 1.40625H14.1094C14.4971 1.40625 14.8125 1.72167 14.8125 2.10938V2.8125H9.1875V2.10938ZM18.447 21.9566C18.4129 22.32 18.1123 22.5938 17.747 22.5938H6.25294C5.88769 22.5938 5.58712 22.32 5.55291 21.9566L4.32581 7.03125H19.6742L18.447 21.9566ZM21.1406 5.625H20.4375H3.5625H2.85938V4.92188C2.85938 4.53417 3.1748 4.21875 3.5625 4.21875H8.48438H15.5156H20.4375C20.8252 4.21875 21.1406 4.53417 21.1406 4.92188V5.625Z" fill="black"/>
<path d="M12 8.4375C11.6117 8.4375 11.2969 8.75231 11.2969 9.14062V19.0781C11.2969 19.4664 11.6117 19.7812 12 19.7812C12.3883 19.7812 12.7031 19.4664 12.7031 19.0781V9.14062C12.7031 8.75231 12.3883 8.4375 12 8.4375Z" fill="black"/>
<path d="M16.2188 8.4375C15.8304 8.4375 15.5156 8.75231 15.5156 9.14062V19.0781C15.5156 19.4664 15.8304 19.7812 16.2188 19.7812C16.6071 19.7812 16.9219 19.4664 16.9219 19.0781V9.14062C16.9219 8.75231 16.6071 8.4375 16.2188 8.4375Z" fill="black"/>
<path d="M7.78125 8.4375C7.39294 8.4375 7.07812 8.75231 7.07812 9.14062V19.0781C7.07812 19.4664 7.39294 19.7812 7.78125 19.7812C8.16956 19.7812 8.48438 19.4664 8.48438 19.0781V9.14062C8.48438 8.75231 8.16956 8.4375 7.78125 8.4375Z" fill="black"/>
</svg>
