<svg width="24" height="24" viewBox="0 0 24 24" fill="none" xmlns="http://www.w3.org/2000/svg">
<g clip-path="url(#clip0_113_3335)">
<path d="M18.0288 8.04779H16.0718C15.6945 8.04779 15.3927 8.34963 15.3927 8.72692C15.3927 9.10422 15.6945 9.40606 16.0718 9.40606H18.0288C18.9896 9.40606 19.7744 10.1908 19.7744 11.1517V20.9011C19.7744 21.862 18.9896 22.6467 18.0288 22.6467H5.96524C5.00439 22.6467 4.21961 21.862 4.21961 20.9011V11.1467C4.21961 10.1858 5.00439 9.40103 5.96524 9.40103H7.92217C8.29947 9.40103 8.60131 9.09919 8.60131 8.72189C8.60131 8.34459 8.29947 8.04276 7.92217 8.04276H5.96524C4.25482 8.04276 2.86133 9.43625 2.86133 11.1467V20.8961C2.86133 22.6065 4.25482 24 5.96524 24H18.0338C19.7442 24 21.1377 22.6065 21.1377 20.8961V11.1467C21.1327 9.43625 19.7392 8.04779 18.0288 8.04779Z" fill="black"/>
<path d="M8.40038 5.24069L11.3182 2.32291V13.2897C11.3182 13.667 11.62 13.9689 11.9973 13.9689C12.3746 13.9689 12.6764 13.667 12.6764 13.2897V2.32291L15.5942 5.24069C15.725 5.37148 15.9011 5.44191 16.0721 5.44191C16.2432 5.44191 16.4192 5.37651 16.55 5.24069C16.8167 4.97406 16.8167 4.54645 16.55 4.27983L12.4702 0.199969C12.2036 -0.0666562 11.7759 -0.0666562 11.5093 0.199969L7.42946 4.27983C7.16284 4.54645 7.16284 4.97406 7.42946 5.24069C7.70615 5.50731 8.13375 5.50731 8.40038 5.24069Z" fill="black"/>
</g>
<defs>
<clipPath id="clip0_113_3335">
<rect width="24" height="24" fill="white"/>
</clipPath>
</defs>
</svg>
